<svg xmlns="http://www.w3.org/2000/svg" viewBox="0 0 1200 200" fill="none">
  <defs>
    <filter id="statGlow">
      <feGaussianBlur stdDeviation="40"/>
    </filter>
  </defs>
  <!-- Ambient glow spots -->
  <ellipse cx="200" cy="100" rx="200" ry="100" fill="#E8A0B5" opacity="0.04" filter="url(#statGlow)"/>
  <ellipse cx="600" cy="100" rx="200" ry="100" fill="#9b59b6" opacity="0.03" filter="url(#statGlow)"/>
  <ellipse cx="1000" cy="100" rx="200" ry="100" fill="#f27059" opacity="0.04" filter="url(#statGlow)"/>
  <!-- Subtle grid dots -->
  <circle cx="100" cy="50" r="1" fill="#E8A0B5" opacity="0.1"/>
  <circle cx="200" cy="50" r="1" fill="#E8A0B5" opacity="0.1"/>
  <circle cx="300" cy="50" r="1" fill="#E8A0B5" opacity="0.1"/>
  <circle cx="400" cy="50" r="1" fill="#E8A0B5" opacity="0.1"/>
  <circle cx="500" cy="50" r="1" fill="#E8A0B5" opacity="0.1"/>
  <circle cx="600" cy="50" r="1" fill="#E8A0B5" opacity="0.1"/>
  <circle cx="700" cy="50" r="1" fill="#E8A0B5" opacity="0.1"/>
  <circle cx="800" cy="50" r="1" fill="#E8A0B5" opacity="0.1"/>
  <circle cx="900" cy="50" r="1" fill="#E8A0B5" opacity="0.1"/>
  <circle cx="1000" cy="50" r="1" fill="#E8A0B5" opacity="0.1"/>
  <circle cx="1100" cy="50" r="1" fill="#E8A0B5" opacity="0.1"/>
  <circle cx="100" cy="100" r="1" fill="#E8A0B5" opacity="0.08"/>
  <circle cx="200" cy="100" r="1" fill="#E8A0B5" opacity="0.08"/>
  <circle cx="300" cy="100" r="1" fill="#E8A0B5" opacity="0.08"/>
  <circle cx="400" cy="100" r="1" fill="#E8A0B5" opacity="0.08"/>
  <circle cx="500" cy="100" r="1" fill="#E8A0B5" opacity="0.08"/>
  <circle cx="600" cy="100" r="1" fill="#E8A0B5" opacity="0.08"/>
  <circle cx="700" cy="100" r="1" fill="#E8A0B5" opacity="0.08"/>
  <circle cx="800" cy="100" r="1" fill="#E8A0B5" opacity="0.08"/>
  <circle cx="900" cy="100" r="1" fill="#E8A0B5" opacity="0.08"/>
  <circle cx="1000" cy="100" r="1" fill="#E8A0B5" opacity="0.08"/>
  <circle cx="1100" cy="100" r="1" fill="#E8A0B5" opacity="0.08"/>
  <circle cx="100" cy="150" r="1" fill="#E8A0B5" opacity="0.1"/>
  <circle cx="200" cy="150" r="1" fill="#E8A0B5" opacity="0.1"/>
  <circle cx="300" cy="150" r="1" fill="#E8A0B5" opacity="0.1"/>
  <circle cx="400" cy="150" r="1" fill="#E8A0B5" opacity="0.1"/>
  <circle cx="500" cy="150" r="1" fill="#E8A0B5" opacity="0.1"/>
  <circle cx="600" cy="150" r="1" fill="#E8A0B5" opacity="0.1"/>
  <circle cx="700" cy="150" r="1" fill="#E8A0B5" opacity="0.1"/>
  <circle cx="800" cy="150" r="1" fill="#E8A0B5" opacity="0.1"/>
  <circle cx="900" cy="150" r="1" fill="#E8A0B5" opacity="0.1"/>
  <circle cx="1000" cy="150" r="1" fill="#E8A0B5" opacity="0.1"/>
  <circle cx="1100" cy="150" r="1" fill="#E8A0B5" opacity="0.1"/>
</svg>